<svg width="306" height="64" viewBox="0 0 306 64" fill="none" xmlns="http://www.w3.org/2000/svg">
<path fill-rule="evenodd" clip-rule="evenodd" d="M92.4365 0.678394C91.8625 1.0694 91.1705 1.72939 90.8989 2.14504C90.566 2.65426 90.1423 2.90066 89.5989 2.90066C88.6284 2.90066 87.7439 3.48291 86.8915 4.68292C86.0345 5.88938 86.3523 6.0645 87.6286 5.0886C88.6041 4.34266 88.82 4.2972 90.5946 4.46322C92.5012 4.64186 92.5135 4.63804 93.6947 3.53337C94.94 2.36885 95.2288 1.26974 94.5157 0.408236C94.0154 -0.196022 93.6505 -0.148501 92.4365 0.678394ZM93.5657 2.38733C93.4276 2.80914 91.8815 3.07372 91.8815 2.67567C91.8815 2.23304 92.2373 2.02067 92.9787 2.02067C93.4135 2.02067 93.6397 2.16205 93.5657 2.38733ZM124.797 4.23736C123.888 5.17601 123.185 5.62598 122.438 5.74742C121.635 5.87795 121.168 6.20735 120.527 7.09438C119.355 8.71532 119.464 8.92681 120.922 7.86701C122.097 7.01342 122.271 6.97353 124.067 7.14513C125.938 7.32377 125.987 7.30998 127.066 6.30181C128.638 4.83369 128.573 2.90066 126.951 2.90066C126.318 2.90066 125.755 3.2503 124.797 4.23736ZM106.395 4.54066C106.297 4.79732 106.484 5.38369 106.811 5.84363C107.774 7.19969 108.325 8.76372 108.718 11.2605L109.087 13.6072L109.116 11.6671C109.152 9.24009 108.73 6.95916 107.944 5.33089C107.318 4.03525 106.708 3.72374 106.395 4.54066ZM80.0761 4.5873C80.0012 4.70815 79.1047 5.23849 78.0838 5.76589C76.016 6.83361 72.135 9.60205 72.3723 9.83994C72.4563 9.92413 73.2922 9.47152 74.23 8.83412C75.1678 8.19671 76.5933 7.33696 77.3979 6.92366C79.0002 6.10058 81.1163 4.3981 80.5606 4.37933C80.369 4.37258 80.151 4.46645 80.0761 4.5873ZM126.993 4.94369C126.993 5.37283 125.837 5.90229 125.328 5.70635C124.966 5.56702 124.949 5.44939 125.24 5.0971C125.64 4.61458 126.993 4.49607 126.993 4.94369ZM32.8544 5.3083C32.2882 6.0073 31.0213 10.5431 31.0213 11.8721C31.0213 13.0666 31.1161 13.2431 32.0562 13.799C32.6253 14.1357 33.2878 14.7925 33.528 15.2586C33.9833 16.1409 36.288 29.2569 36.288 30.9646C36.288 32.824 34.833 33.5955 31.8391 33.3233C30.384 33.191 29.9132 33.005 29.1449 32.2582C28.6328 31.7607 28.0687 31.3536 27.8911 31.3536C27.4139 31.3536 26.8392 34.1077 27.0835 35.2229C27.2017 35.7629 27.7536 36.6065 28.3411 37.146L29.3877 38.1072L28.4418 40.0308C26.7084 43.5546 24.0186 45.781 20.3313 46.7437C18.1432 47.3151 16.7604 47.3122 15.0572 46.7322C12.8484 45.9804 13.2431 46.4677 15.9204 47.7979C17.989 48.8254 18.7899 49.063 20.5519 49.1716C22.4742 49.2901 22.8394 49.22 24.2907 48.4532C27.063 46.9886 28.8684 44.2941 30.3428 39.4201C30.8732 37.6657 30.8788 37.6602 32.0454 37.615C33.0405 37.5766 33.4007 37.3651 34.4496 36.2038C35.1282 35.4529 36.1148 33.9601 36.6415 32.8871C37.5052 31.1286 37.61 30.6308 37.7054 27.838C37.7747 25.807 37.6498 23.8754 37.3423 22.2305C36.7217 18.9106 36.7495 17.886 37.5199 15.6731C38.2879 13.4664 38.2669 13.4253 35.5583 11.8372C34.5058 11.2201 33.3419 10.2527 32.9232 9.64723L32.1735 8.56279L32.9615 7.0407C33.4891 6.02138 33.6523 5.42094 33.4554 5.22353C33.2588 5.02641 33.0601 5.05428 32.8544 5.3083ZM82.4072 6.34727C81.6543 8.02893 81.0627 10.5237 81.0589 12.0335C81.056 13.1601 81.18 13.4749 81.7828 13.8709C83.3815 14.921 83.407 15.0266 84.8653 26.5929C85.4534 31.2583 85.4672 31.7153 85.0379 32.3717C84.4463 33.2769 82.9892 33.6841 81.3281 33.4078C79.5772 33.1168 79.1231 32.8944 78.5791 32.0623C78.3243 31.6724 78.0001 31.3536 77.8588 31.3536C77.4629 31.3536 76.959 33.064 76.9602 34.4039C76.9611 35.6118 77.8526 37.5135 78.4176 37.5135C78.9265 37.5135 78.7395 38.7675 77.9907 40.3799C75.7676 45.1673 70.0935 47.9751 65.8954 46.3653C64.7334 45.9197 64.4306 45.8775 64.6963 46.1987C65.3143 46.9452 68.5864 48.6286 70.0953 48.9765C73.9301 49.8609 77.4468 46.8035 79.2864 40.9856C80.4058 37.4452 80.402 37.4522 81.0926 37.6719C82.0678 37.9822 83.0354 37.2557 84.4083 35.1818C86.6899 31.7364 87.2169 28.0102 86.3435 21.4974C85.9643 18.6697 85.9754 18.438 86.5869 16.4193C86.9395 15.256 87.152 14.0645 87.0592 13.7717C86.9664 13.4787 86.1817 12.7674 85.3153 12.1904C83.6952 11.1121 82.2243 9.4683 82.2278 8.73967C82.2287 8.51292 82.4912 7.93125 82.811 7.44726C83.4009 6.55436 83.601 5.24729 83.1481 5.24729C83.0114 5.24729 82.6781 5.74243 82.4072 6.34727ZM27.7869 7.39915C25.4854 8.67103 21.5798 11.4263 21.7855 11.6328C21.8507 11.6979 22.9351 11.1004 24.195 10.3049C25.4552 9.50907 27.0788 8.52143 27.803 8.10989C28.8687 7.50416 30.5833 6.05306 30.1157 6.1525C30.0505 6.16629 29.0027 6.72743 27.7869 7.39915ZM39.5054 9.3583C39.1499 10.6824 39.3466 12.1423 40.1164 13.8905C40.9488 15.7804 41.3061 19.6439 41.2075 25.6879C41.1106 31.6352 41.2882 32.2465 42.2734 29.3554C43.4827 25.8064 43.4886 19.8014 42.2869 15.0738C41.4301 11.7038 40.2905 8.18058 40.057 8.18058C39.9277 8.18058 39.6795 8.71063 39.5054 9.3583ZM48.6845 8.65401C48.5757 8.9582 48.4349 9.30403 48.3714 9.42224C48.3079 9.54045 48.9856 10.3181 49.8771 11.15C52.179 13.2977 53.2572 15.5663 53.2631 18.274C53.2663 19.7251 53.3535 20.2209 53.5513 19.9137C54.0657 19.1159 53.857 16.3193 53.1285 14.2499C52.476 12.3966 50.8219 9.86106 49.459 8.62439C48.9042 8.12103 48.8744 8.12221 48.6845 8.65401ZM89.2589 10.9385C88.7829 12.1939 88.897 13.5558 89.6791 15.9579C90.6479 18.9337 91.1111 23.7341 90.9414 29.041C90.8644 31.4422 90.8437 33.4069 90.8951 33.4069C91.2135 33.4069 91.9795 31.2803 92.3382 29.4009C92.8743 26.5931 92.8734 22.8315 92.3359 19.5131C91.9058 16.857 90.2488 10.8892 89.8073 10.4061C89.6674 10.253 89.4324 10.4812 89.2589 10.9385ZM122.781 10.4773C122.188 11.4398 122.273 13.506 123.003 15.8503C124.183 19.641 124.75 28.0278 124.096 32.0136C123.617 34.9287 125.013 32.8551 125.692 29.6417C126.22 27.1434 126.214 22.1956 125.678 19.1804C125.26 16.8223 123.559 10.8868 123.171 10.4284C123.057 10.2931 122.881 10.3154 122.781 10.4773ZM60.6467 12.8862L58.818 13.7559V15.8467V17.9376L60.0616 17.7569C60.7456 17.6575 63.0958 17.4885 65.2841 17.3814C70.1131 17.145 70.5319 17.4017 67.6805 18.8516C64.3475 20.5465 62.7116 22.7432 61.2811 27.445C60.4042 30.3269 59.6882 31.0603 57.7506 31.0603C57.0458 31.0603 56.2186 30.9033 55.9119 30.7112C55.1213 30.2163 54.6459 30.7012 53.9717 32.6894L53.4158 34.3285L54.0949 35.5115C55.2077 37.4498 55.892 39.8273 55.892 41.7553C55.892 43.2449 55.7431 43.794 55.0359 44.9121C53.3119 47.6372 49.6433 49.8811 46.5907 50.078C44.0354 50.2425 42.389 49.7072 40.6618 48.1508C37.8885 45.651 37.672 42.0469 40.0649 38.2207C40.7066 37.1949 41.1182 36.2856 40.9801 36.2C40.5424 35.9289 38.5852 38.9309 37.6858 41.2529C35.5946 46.6525 36.7717 52.0685 40.4537 53.9874C43.2241 55.4315 47.9592 54.555 51.7 51.9057C54.398 49.9949 54.7138 49.5849 56.2765 45.9605C57.7579 42.5253 58.2214 40.3608 58.2419 36.7802C58.2551 34.4802 58.2735 34.4218 59.1674 33.8469C59.6692 33.5242 60.317 32.81 60.6075 32.26C61.435 30.6921 61.593 30.6255 62.766 31.3524C64.0002 32.1171 65.8989 32.0602 67.1772 31.2207C68.9612 30.0489 69.197 26.9765 67.7466 23.8009L66.9774 22.1166L67.5912 21.6186C68.7309 20.6934 71.4471 19.8997 74.7075 19.5392C77.8535 19.191 77.965 19.154 78.444 18.3004C78.7152 17.8164 79.0142 16.7132 79.1085 15.8488C79.2738 14.3314 79.2574 14.2839 78.6315 14.4681C77.0816 14.9245 74.0901 15.2211 72.8703 15.0398C72.142 14.9313 69.9253 14.2581 67.9444 13.5438C63.264 11.8554 62.8857 11.8214 60.6467 12.8862ZM3.34161 12.7061C2.48781 13.0786 1.8558 13.946 2.19228 14.2836C2.27597 14.3672 2.68034 14.2824 3.09085 14.0947C4.03535 13.6635 5.85794 13.6506 5.85794 14.0753C5.85794 14.469 4.85082 15.9661 3.85424 17.0538C2.99927 17.9869 3.29391 18.101 4.5 17.3037C5.73827 16.4853 6.43904 15.2416 6.44109 13.8586C6.44372 12.2282 5.35994 11.8252 3.34161 12.7061ZM102.324 12.6257C101.984 12.8166 101.828 13.2869 101.825 14.1352C101.823 14.8128 101.687 15.5651 101.523 15.8071C101.193 16.2944 101.188 16.2894 99.4747 13.8272C98.5041 12.4318 97.5669 12.1875 97.1825 13.2297C96.8252 14.1979 97.1339 14.9494 98.1074 15.4795C99.7889 16.3958 100.647 17.3107 100.98 18.5421C101.162 19.2159 101.382 19.9651 101.468 20.2071C101.554 20.4491 101.782 19.2884 101.975 17.6275C102.351 14.3692 102.638 13.7257 103.379 14.4684C103.989 15.0806 104.171 15.0468 104.171 14.3211C104.171 12.9792 103.231 12.1168 102.324 12.6257ZM12.0815 13.0155C11.5615 13.242 10.8833 13.8445 10.574 14.3543C9.91597 15.439 9.49405 17.8097 9.88876 18.2054C10.0585 18.3755 10.9286 18.2978 12.1795 18.0009C15.4455 17.2263 17.1519 17.3266 19.8745 18.4536C21.1774 18.9927 22.2434 19.5354 22.2434 19.6588C22.2434 20.3092 16.3508 23.727 15.2298 23.727C14.9302 23.727 14.12 23.199 13.4298 22.5537C12.7395 21.9084 11.9641 21.3804 11.707 21.3804C10.0588 21.3804 5.4091 25.8965 4.15707 28.7136C2.79591 31.7754 2.74734 32.3943 3.9388 31.4909C4.59597 30.9925 5.23529 30.9482 5.85794 31.358C6.24797 31.6149 6.24797 31.6789 5.85794 31.9358C5.61655 32.0945 5.05564 32.2265 4.61148 32.2292C3.46245 32.2353 2.98464 32.9487 1.828 36.3859L0.807129 39.4201L1.14771 42.7934C1.57637 47.0394 2.70316 52.6977 3.81591 56.195C4.28786 57.6772 4.77562 59.9106 4.89998 61.1579C5.15395 63.7002 5.65312 64.2601 6.13006 62.538C6.90983 59.7232 6.36618 54.2655 4.48771 46.0538C3.76382 42.8893 3.10109 39.6753 3.01507 38.9115C2.81171 37.1075 3.39369 36.1818 5.00502 35.7468C6.21608 35.42 6.95489 35.5174 9.9107 36.3933C11.1452 36.7591 11.2046 36.7461 11.8752 35.9647C12.2556 35.5212 12.7205 34.6442 12.9084 34.0153C13.2083 33.0118 13.1717 32.7096 12.6099 31.546C12.2576 30.8168 11.0442 29.3452 9.91334 28.2757C7.77094 26.2497 7.57139 25.656 8.91763 25.3172C10.0342 25.0364 11.015 25.3893 12.2646 26.521C14.1364 28.2161 15.3243 27.8759 20.7804 24.0814C23.656 22.0817 26.1972 21.0871 28.4309 21.0871C29.4837 21.0871 29.5446 21.0252 30.8513 18.6219C31.5886 17.2662 32.1917 16.111 32.1917 16.0553C32.1917 15.9996 30.9736 15.9418 29.4852 15.9271C26.2008 15.8948 22.5091 15.0457 19.4075 13.6092C17.5127 12.7316 16.8815 12.5823 15.1066 12.592C13.9626 12.5984 12.6011 12.7888 12.0815 13.0155ZM111.782 15.2765C111.777 16.5801 111.353 16.9236 110.597 16.2372C110.061 15.7511 110.025 15.7631 109.737 16.522C109.311 17.6446 108.227 17.4559 107.818 16.1879C107.335 14.6896 107.097 14.7198 107.097 16.2797C107.097 18.6636 108.377 19.7838 109.579 18.4518C109.943 18.0491 110.318 17.9238 110.799 18.0447C111.181 18.1406 111.689 18.0564 111.928 17.8572C112.421 17.4474 112.515 15.3226 112.071 14.6338C111.859 14.3059 111.786 14.4696 111.782 15.2765ZM117.386 19.831C116.81 21.2868 116.118 26.1819 116.296 27.5403C116.391 28.2663 116.755 30.405 117.105 32.2928C117.907 36.6297 117.713 37.9033 116.225 38.0465C115.432 38.123 115.059 37.9388 114.139 37.0163C112.639 35.5121 112.617 35.3989 111.494 23.1794C111.222 20.222 110.948 19.5882 110.288 20.3878C109.723 21.0727 109.801 25.0834 110.456 28.9811C110.783 30.9324 110.922 32.9252 110.84 34.4987C110.713 36.9154 110.689 36.9834 109.536 38.1392C107.409 40.272 104.836 39.9094 103.355 37.268C102.772 36.2284 102.708 35.7025 102.708 31.9737C102.708 29.6602 102.589 27.8336 102.439 27.8336C102.292 27.8336 101.919 28.591 101.612 29.5165C101.126 30.9758 100.841 31.3442 99.4659 32.2887C96.9153 34.0405 93.0563 38.3844 93.053 39.5067C93.0525 39.7158 93.3752 40.2107 93.7702 40.6067C95.172 42.0123 98.0614 41.3083 99.8893 39.1162C101.113 37.649 101.537 37.4868 101.537 38.4868C101.537 39.8854 102.455 42.2073 103.408 43.2205C104.196 44.0583 104.603 44.2601 105.502 44.2601C107.981 44.2601 110.261 42.2587 110.787 39.6199C111.029 38.4076 111.261 38.4431 111.879 39.7868C112.451 41.0308 113.703 42.1282 114.964 42.4904C117.913 43.3387 120.208 37.5469 119.431 31.2125C119.249 29.7288 118.893 27.9328 118.64 27.2212C118.37 26.4603 118.126 24.546 118.049 22.5754C117.976 20.7318 117.87 19.1766 117.813 19.1194C117.756 19.0619 117.564 19.3822 117.386 19.831ZM297.727 19.6148C297.341 20.2408 296.407 23.2706 296.407 23.896C296.407 24.2846 297.025 25.238 297.899 26.1966C299.38 27.821 300.041 28.1718 300.293 27.467C300.364 27.2655 300.511 27.1807 300.617 27.2792C301.239 27.8521 302.844 33.9745 302.844 35.7726C302.844 36.6303 302.837 36.6335 301.069 36.6335C298.897 36.6335 298.294 36.3367 298.057 35.1522C297.742 33.5735 297.091 34.2047 295.811 37.331C295.234 38.7405 295.209 38.7593 294.154 38.5874C292.461 38.3119 292.116 37.7886 292.551 36.1557C292.751 35.4071 292.854 34.7342 292.78 34.66C292.707 34.5861 292.246 35.0988 291.758 35.7996C291.269 36.5003 290.651 37.3841 290.383 37.7637C289.593 38.8845 288.305 39.228 284.614 39.3019C282.731 39.3395 281.124 39.3031 281.041 39.2204C280.959 39.138 281.413 38.1591 282.051 37.0453C283.317 34.8322 283.795 33.4069 283.272 33.4069C283.093 33.4069 282.947 33.5908 282.947 33.8152C282.947 34.0399 282.173 34.9419 281.228 35.8198C279.205 37.6968 277.923 38.1406 272.56 38.82C267.571 39.4521 245.677 40.9707 235.986 41.357C226.335 41.7415 191.822 41.5365 185.659 41.0578C170.876 39.9097 155.102 37.8432 147.277 36.0301C144.147 35.3047 140.086 33.8844 138.533 32.9722C137.166 32.169 135.771 30.6666 135.771 29.9978C135.771 29.2982 134.396 28.127 133.575 28.127C131.954 28.127 128.905 30.3307 127.539 32.4896C126.373 34.3335 126.342 36.6015 127.472 37.4921C127.896 37.8265 128.422 38.1002 128.642 38.1002C129.238 38.1002 129.133 38.441 128.184 39.5958C127.047 40.9789 123.608 43.3352 120.224 45.05C117.071 46.6484 117.341 46.991 121.094 46.1541C126.159 45.0245 128.309 43.3848 129.449 39.7801C129.715 38.9385 130.467 38.8575 131.803 39.5263C132.492 39.8713 133.467 40.1535 133.97 40.1535C134.772 40.1535 134.973 39.9751 135.625 38.6868C136.467 37.0213 136.796 36.9292 138.773 37.8057C139.498 38.1277 141.774 38.8531 143.829 39.4175C156.163 42.8066 172.712 44.8843 194.29 45.7528C203.958 46.1418 231.438 45.9649 241.545 45.4483C265.689 44.2146 272.044 43.5687 275.309 42.0161C276.868 41.2749 277.045 41.2526 278.887 41.5673C279.952 41.7495 281.884 42.3147 283.18 42.823C286.214 44.014 287.253 43.8735 289.014 42.034C289.695 41.3224 290.52 40.7401 290.847 40.7401C291.174 40.7401 292.141 41.1361 292.997 41.6201C293.853 42.1041 294.766 42.5001 295.027 42.5001C295.287 42.5001 295.921 41.873 296.434 41.1068C297.696 39.2201 298.061 38.9561 298.943 39.2922C299.339 39.4433 300.308 39.5668 301.096 39.5668C302.915 39.5668 303.385 39.084 304.281 36.2947C305.088 33.7823 304.995 31.9083 303.871 28.0202C302.802 24.3225 301.887 22.4798 300.293 20.8228C298.91 19.384 298.103 19.0044 297.727 19.6148ZM79.5924 24.8059C79.5924 25.9478 78.9508 26.5659 78.4249 25.9305C77.915 25.3145 77.7605 25.3673 77.2039 26.3479C76.5661 27.472 75.647 27.2672 75.1505 25.8903C74.6774 24.5789 74.1606 24.7883 74.2783 26.2438C74.4664 28.5728 75.7717 29.3569 77.3672 28.0988C77.8114 27.7486 78.3495 27.562 78.6181 27.6656C78.8776 27.7653 79.416 27.6327 79.8145 27.3708C80.443 26.958 80.5185 26.7378 80.3815 25.7152C80.1791 24.2022 79.5924 23.5261 79.5924 24.8059ZM30.1435 25.6164C30.1435 26.8489 29.7064 27.1789 28.9649 26.506C28.4336 26.0241 28.3929 26.0355 28.0658 26.7548C27.8776 27.169 27.5248 27.5846 27.2819 27.6779C26.7283 27.8908 25.8163 27.0895 25.6978 26.286C25.5336 25.1737 24.8768 25.3518 24.8768 26.5084C24.8768 28.9052 26.6727 30.1767 28.016 28.7312C28.3344 28.3889 28.9046 28.1727 29.4483 28.188C29.9451 28.2023 30.5025 28.1205 30.6866 28.0064C31.2592 27.6515 31.0043 24.607 30.4019 24.607C30.26 24.607 30.1435 25.0611 30.1435 25.6164ZM66.5432 26.9261C66.9592 28.3804 66.4261 28.6799 64.8163 27.8961C63.2629 27.1393 63.0472 26.2772 64.3042 25.8475C65.4407 25.4591 66.2327 25.8408 66.5432 26.9261ZM20.5589 31.7349C18.1289 33.1449 14.5337 35.7491 14.7368 35.9524C14.8117 36.0278 15.6427 35.567 16.5834 34.9287C17.5238 34.2904 18.9517 33.4327 19.7563 33.0232C21.2488 32.2635 23.5048 30.495 22.9749 30.5003C22.8139 30.5018 21.7267 31.0576 20.5589 31.7349ZM45.5192 32.2189C44.2461 33.5145 44.1355 33.7281 44.4907 34.1989C45.3641 35.3561 46.6612 36.6335 46.9632 36.6335C47.1387 36.6335 47.9053 35.9996 48.6667 35.2247L50.0509 33.8158L48.631 32.2914C47.8497 31.453 47.1513 30.7669 47.0784 30.7669C47.0056 30.7669 46.3039 31.4205 45.5192 32.2189ZM133.501 31.4269C134.024 31.8308 135.059 35.0982 134.759 35.3989C134.488 35.6711 131.722 34.6544 130.402 33.7979L129.276 33.0666L129.947 32.3503C130.534 31.7241 131.75 31.1691 132.716 31.0867C132.886 31.0723 133.24 31.2254 133.501 31.4269ZM101.107 33.819C102.087 35.3185 100.833 37.2049 98.8497 37.2158C97.8537 37.2213 96.563 36.7374 96.563 36.3581C96.563 36.019 99.9765 33.1136 100.375 33.1136C100.524 33.1136 100.853 33.4309 101.107 33.819ZM14.7783 38.3973L13.3338 39.8678L14.8623 41.4001L16.3911 42.9328L17.7743 41.5462L19.1574 40.1596L20.5577 41.5427L21.9584 42.9254L23.4872 41.3928L25.016 39.8601L23.4878 38.3281L21.9596 36.796L20.7005 38.0347C20.0082 38.7161 19.3086 39.2735 19.1462 39.2735C18.9838 39.2735 18.3366 38.7455 17.7081 38.1002C17.0796 37.4548 16.4883 36.9268 16.3941 36.9268C16.3001 36.9268 15.573 37.5886 14.7783 38.3973ZM65.5633 38.3202C64.8847 40.7692 65.3795 42.5001 66.7582 42.5001C67.7054 42.5001 68.3912 41.9862 68.7251 41.0264C69.1394 39.8349 68.4222 39.4902 67.5286 40.4515L66.9092 41.1182L66.3679 40.4483C66.0703 40.0798 65.8895 39.5656 65.9659 39.306C66.4018 37.8265 66.4636 37.2202 66.1783 37.2202C66.0077 37.2202 65.7306 37.7153 65.5633 38.3202ZM300.052 46.0327L298.616 47.4943L300.13 49.012L301.644 50.53L303.107 49.0402L304.569 47.5503L303.48 46.4187C301.526 44.3903 301.652 44.4044 300.052 46.0327ZM98.7575 45.451C98.2747 45.781 97.0227 46.4917 95.9755 47.0303C94.2553 47.9147 89.8333 51.1187 89.8333 51.4807C89.8333 51.6508 89.9103 51.6065 92.5229 49.9369C93.5999 49.2487 95.2458 48.2919 96.1803 47.8108C97.65 47.0543 99.7816 45.3779 99.7816 44.9784C99.7816 44.7708 99.6903 44.813 98.7575 45.451ZM131.525 46.8598C128.27 48.5307 125.379 50.366 125.621 50.6083C125.693 50.6808 126.459 50.3194 127.323 49.8049C128.188 49.2907 129.948 48.3681 131.236 47.7545C133.411 46.7182 135.129 45.5607 134.862 45.3125C134.798 45.2539 133.297 45.9502 131.525 46.8598ZM58.9643 50.5945C58.6425 50.8415 57.3916 51.564 56.1846 52.1999C54.1101 53.2931 49.6419 56.5717 49.8888 56.8193C49.9517 56.8826 51.1435 56.1892 52.5365 55.2787C53.9299 54.3682 55.6486 53.3506 56.3561 53.0174C57.6488 52.4082 60.3887 50.153 59.8421 50.1481C59.6812 50.1466 59.2862 50.3475 58.9643 50.5945ZM304.387 51.4528C304.048 51.6907 302.692 52.3416 301.374 52.8989C299.33 53.7631 295.236 56.137 295.236 56.4582C295.236 56.5837 295.504 56.4661 299.187 54.7155C303.413 52.7068 303.791 52.51 304.595 51.8954C305.463 51.2328 305.273 50.8303 304.387 51.4528Z" fill="#F3460F"/>
</svg>
