<svg width="77" height="186" viewBox="0 0 77 186" fill="none" xmlns="http://www.w3.org/2000/svg">
<path fill-rule="evenodd" clip-rule="evenodd" d="M73.0544 0.410475C76.1864 1.16446 77.7484 3.81686 76.6492 6.51336C75.499 9.33359 72.9316 9.77676 67.9095 8.02185C64.416 6.80086 62.6229 6.74965 60.5996 7.81243C59.2547 8.51876 59.1075 8.80626 59.3675 10.2209C59.6067 11.52 59.5602 11.6503 59.1274 10.9034C57.0447 7.31096 63.9438 4.06836 69.1595 6.18834C71.9751 7.33276 73.0823 7.22882 73.7418 5.75786C74.4666 4.14188 73.7023 3.14146 71.2248 2.46404C66.8093 1.25624 58.6043 5.39988 48.4423 13.9696L46.5034 15.6048L47.5418 16.7584C50.5425 20.0902 50.9878 24.1147 48.8217 28.3258C47.4674 30.9584 46.5738 31.7372 40.5488 35.5315C34.5493 39.3101 26.7846 47.4944 20.9514 56.1883C18.0959 60.4435 12.957 70.7752 11.743 74.7019C11.398 75.8174 10.7241 77.7569 10.2458 79.0118C9.48653 81.0055 8.44169 85.6309 5.49286 100.055C4.49393 104.941 3.7631 111.023 3.79755 114.162L3.82599 116.787L4.97318 114.227C6.98748 109.73 10.5628 106.393 13.3674 106.393C16.8983 106.393 18.0784 110.743 15.212 113.193C14.3673 113.915 13.3519 114.506 12.9555 114.506C11.5657 114.506 8.18159 117.116 7.49568 118.719C6.88265 120.151 6.80078 120.2 6.78331 119.147C6.75336 117.325 8.58846 115.118 11.2917 113.727C14.238 112.211 15.6782 110.316 14.7492 109.179C13.8811 108.117 11.9192 108.236 9.95329 109.47C7.82915 110.803 5.02659 116.436 4.04215 121.351C3.65077 123.303 3.18949 127.367 3.01677 130.383C2.73022 135.385 2.79813 136.053 3.79105 137.989C4.3896 139.156 5.61417 140.939 6.51274 141.95C10.9652 146.96 12.1568 152.173 9.47305 154.899C8.4307 155.958 7.86559 156.151 6.48128 155.923L4.7745 155.642L5.5193 157.105C6.60358 159.235 6.45083 160.447 4.70809 163.541C2.94888 166.664 2.95337 168.815 4.72356 171.101C5.88173 172.597 6.50874 175.308 6.0894 177.007C5.93215 177.642 5.08301 179.267 4.2019 180.618C2.77067 182.813 2.68878 183.124 3.4341 183.548C4.27177 184.025 4.61874 186 3.86394 186C3.1286 186 1.87708 184.748 1.57655 183.712C1.39834 183.098 1.87657 181.411 2.77415 179.483C4.58578 175.592 4.61824 174.452 3.02926 170.535C1.47122 166.693 1.46823 165.337 3.01378 162.385C4.44451 159.651 4.32071 158.36 2.33835 155.362C1.13825 153.548 1.00896 152.86 0.86219 147.503C0.513741 134.804 0.476295 77.8892 0.812263 71.9131C1.37388 61.9201 3.23942 55.8547 10.1115 41.6724C12.3979 36.9548 12.5866 35.3307 10.9247 34.6827C9.42412 34.0981 8.76067 35.3692 8.76067 38.8299C8.76067 41.2779 8.49509 42.5674 7.7318 43.8213C5.8428 46.926 1.49966 46.5391 0.232178 43.153C-0.391342 41.4873 0.233177 39.5398 2.20007 37.0167C3.81301 34.9474 4.79745 31.9847 4.45848 30.2201C4.29524 29.3698 4.45748 29.492 5.078 30.6856C5.91218 32.2909 5.9017 32.3391 3.84546 36.5167C1.76974 40.7334 1.50816 41.7236 2.07476 43.223C2.57796 44.5545 5.02509 44.2209 6.01502 42.686C6.7224 41.5903 6.81776 40.7141 6.5407 37.8614C6.21172 34.4682 6.24216 34.3359 7.69286 32.8624C8.58994 31.9512 9.70469 31.3488 10.4934 31.3488C12.2372 31.3488 14.252 33.592 14.252 35.533C14.252 36.4082 12.4878 40.5853 10.0207 45.5514C3.37569 58.9274 1.6105 66.6133 1.87058 81.04L2.02135 89.4064L3.16604 80.2242C5.4594 61.8308 9.78955 49.3933 18.4483 36.3316C22.5823 30.0959 23.2378 28.736 23.2378 26.3919C23.2378 24.9463 22.9048 24.1091 21.9772 23.2243C20.1856 21.5145 18.1523 21.7528 13.7528 24.1902C8.27544 27.2239 4.72706 27.0267 2.38676 23.5569C-0.0124359 20.001 1.91552 14.9578 6.21321 13.5487C11.9142 11.6792 13.1512 11.0206 13.7583 9.53287C14.2724 8.27183 14.239 7.82612 13.5511 6.75979C12.032 4.40504 6.76384 5.56011 6.76384 8.24799C6.76384 9.22813 7.6125 9.71388 7.92999 8.91477C8.12917 8.41228 8.19107 8.41481 8.22202 8.92744C8.27993 9.88172 6.73638 10.3178 6.22169 9.49281C5.47838 8.29971 5.70452 7.5011 7.22461 5.95713C8.41223 4.75085 9.10912 4.47501 10.9687 4.47501C13.7338 4.47501 15.2504 5.74974 15.2504 8.07306C15.2504 11.4556 13.0474 13.3479 6.2142 15.8345C3.70518 16.7477 2.76517 18.1203 2.77766 20.8513C2.78664 22.7593 3.13109 23.384 4.60925 24.174C6.71242 25.2987 8.91093 24.8454 12.7773 22.4911C17.2802 19.749 18.6705 19.3915 21.5973 20.2241C24.2861 20.9887 25.7293 22.9987 25.7318 25.9827C25.7338 28.1006 23.3421 33.0799 20.6838 36.4924C19.8921 37.5085 19.2441 38.5099 19.2441 38.7178C19.2441 38.9262 17.9696 41.0609 16.4121 43.4623C11.5343 50.9829 7.04989 62.1619 5.81284 69.8848C5.18185 73.8252 3.74462 88.7908 3.97526 89.0246C4.06412 89.1148 4.53636 87.0704 5.02509 84.4809C6.56465 76.3158 10.0636 64.3265 13.1762 56.5514C18.4329 43.4197 23.8158 35.4022 35.0825 23.9251C38.9888 19.9457 42.0215 16.5916 41.8218 16.4714C40.5853 15.7275 36.1668 15.6748 33.5719 16.373C29.9965 17.3344 25.2351 17.377 23.089 16.4663C22.2014 16.0896 20.7482 14.9406 19.8601 13.9133C18.5008 12.3409 18.2457 11.6447 18.2457 9.51157C18.2457 4.56223 20.8131 1.43878 24.8851 1.43472C27.1221 1.43219 29.0835 2.3748 32.4127 5.05052C36.7903 8.57048 40.2628 8.86355 42.1483 5.87296C43.2875 4.06531 43.4777 4.19005 42.7099 6.24108C42.4154 7.02904 41.4968 7.87075 40.4455 8.31695C38.1327 9.29861 36.1398 8.74085 31.2481 5.74214C27.2489 3.29054 25.9944 3.036 23.7424 4.21844C18.1263 7.16848 21.0862 15.6302 27.7341 15.6302C28.6137 15.6302 30.6595 15.2813 32.2799 14.8549C35.5807 13.9858 41.7549 13.6557 43.8017 14.2383C44.9574 14.5674 45.5754 14.2474 48.2152 11.9566C55.0639 6.0129 61.6349 1.95901 66.5157 0.668058C69.6218 -0.153875 70.5558 -0.190383 73.0544 0.410475ZM39.4621 22.1539C34.0816 27.158 27.5 34.6619 24.2042 39.5494C20.8221 44.5652 14.7247 56.8916 11.707 64.8143C9.3767 70.9319 7.30649 78.7578 5.80936 87.1069C4.17994 96.1938 4.6377 95.8029 6.976 86.1105C9.95129 73.779 12.5602 67.1665 17.8693 58.5025C24.4299 47.7971 30.5906 40.67 38.5805 34.5443C45.0487 29.5848 47.1998 26.8563 47.1998 23.6102C47.1998 21.5921 46.6422 20.0958 45.3128 18.5478C44.4192 17.5068 44.5365 17.4343 39.4621 22.1539ZM2.53753 142.52C3.00329 148.339 3.65327 151.077 4.88382 152.408C6.13883 153.764 7.10779 153.849 8.34682 152.709C10.0282 151.164 9.52596 149.627 5.24474 143.218C3.8839 141.181 2.77016 139.249 2.77016 138.926C2.77016 138.602 2.64236 138.337 2.48611 138.337C2.32986 138.337 2.35332 140.219 2.53753 142.52Z" fill="#DD4B4B"/>
</svg>
