<svg width="77" height="186" viewBox="0 0 77 186" fill="none" xmlns="http://www.w3.org/2000/svg">
<path fill-rule="evenodd" clip-rule="evenodd" d="M3.94563 185.59C0.813592 184.836 -0.748437 182.183 0.350823 179.487C1.501 176.666 4.06844 176.223 9.09049 177.978C12.584 179.199 14.3771 179.25 16.4004 178.188C17.7453 177.481 17.8925 177.194 17.6325 175.779C17.3933 174.48 17.4398 174.35 17.8726 175.097C19.9553 178.689 13.0562 181.932 7.84047 179.812C5.02492 178.667 3.91768 178.771 3.25822 180.242C2.53337 181.858 3.29765 182.859 5.77523 183.536C10.1907 184.744 18.3957 180.6 28.5577 172.03L30.4966 170.395L29.4582 169.242C26.4575 165.91 26.0122 161.885 28.1783 157.674C29.5326 155.042 30.4262 154.263 36.4512 150.468C42.4507 146.69 50.2154 138.506 56.0486 129.812C58.9041 125.556 64.043 115.225 65.257 111.298C65.602 110.183 66.2759 108.243 66.7542 106.988C67.5135 104.994 68.5583 100.369 71.5071 85.9455C72.5061 81.0585 73.2369 74.9774 73.2025 71.8383L73.174 69.2127L72.0268 71.7734C70.0125 76.2704 66.4372 79.6073 63.6326 79.6073C60.1017 79.6073 58.9216 75.2568 61.788 72.8072C62.6327 72.0852 63.6481 71.4945 64.0445 71.4945C65.4343 71.4945 68.8184 68.8837 69.5043 67.2814C70.1173 65.8495 70.1992 65.8003 70.2167 66.8529C70.2466 68.6753 68.4115 70.882 65.7083 72.2728C62.762 73.7894 61.3218 75.6838 62.2508 76.8211C63.1189 77.8834 65.0808 77.7642 67.0467 76.53C69.1708 75.197 71.9734 69.5641 72.9578 64.6493C73.3492 62.6971 73.8105 58.6326 73.9832 55.6166C74.2698 50.6145 74.2019 49.9473 73.2089 48.0108C72.6104 46.8436 71.3858 45.0613 70.4873 44.0502C66.0348 39.0401 64.8432 33.8265 67.5269 31.1006C68.5693 30.0419 69.1344 29.8487 70.5187 30.0769L72.2255 30.3583L71.4807 28.8949C70.3964 26.7653 70.5492 25.5529 72.2919 22.4589C74.0511 19.336 74.0466 17.185 72.2764 14.8987C71.1183 13.4029 70.4913 10.6917 70.9106 8.9931C71.0678 8.35826 71.917 6.73315 72.7981 5.38237C74.2293 3.18733 74.3112 2.8755 73.5659 2.4516C72.7282 1.97548 72.3813 0 73.1361 0C73.8714 0 75.1229 1.25192 75.4234 2.28835C75.6017 2.90187 75.1234 4.58884 74.2258 6.51715C72.4142 10.4078 72.3818 11.5476 73.9707 15.4651C75.5288 19.3071 75.5318 20.6634 73.9862 23.615C72.5555 26.3485 72.6793 27.64 74.6617 30.6377C75.8617 32.4524 75.991 33.14 76.1378 38.497C76.4863 51.1961 76.5237 108.111 76.1877 114.087C75.6261 124.08 73.7606 130.145 66.8885 144.328C64.6021 149.045 64.4134 150.669 66.0753 151.317C67.5759 151.902 68.2393 150.631 68.2393 147.17C68.2393 144.722 68.5049 143.433 69.2682 142.179C71.1572 139.074 75.5003 139.461 76.7678 142.847C77.3913 144.513 76.7668 146.46 74.7999 148.983C73.187 151.053 72.2026 154.015 72.5415 155.78C72.7048 156.63 72.5425 156.508 71.922 155.314C71.0878 153.709 71.0983 153.661 73.1545 149.483C75.2303 145.267 75.4918 144.276 74.9252 142.777C74.422 141.445 71.9749 141.779 70.985 143.314C70.2776 144.41 70.1822 145.286 70.4593 148.139C70.7883 151.532 70.7578 151.664 69.3071 153.138C68.4101 154.049 67.2953 154.651 66.5066 154.651C64.7628 154.651 62.748 152.408 62.748 150.467C62.748 149.592 64.5122 145.415 66.9793 140.449C73.6243 127.073 75.3895 119.387 75.1294 104.96L74.9787 96.5936L73.834 105.776C71.5406 124.169 67.2104 136.607 58.5517 149.668C54.4177 155.904 53.7622 157.264 53.7622 159.608C53.7622 161.054 54.0952 161.891 55.0228 162.776C56.8144 164.485 58.8477 164.247 63.2472 161.81C68.7246 158.776 72.2729 158.973 74.6132 162.443C77.0124 165.999 75.0845 171.042 70.7868 172.451C65.0858 174.321 63.8488 174.979 63.2417 176.467C62.7276 177.728 62.761 178.174 63.4489 179.24C64.968 181.595 70.2362 180.44 70.2362 177.752C70.2362 176.772 69.3875 176.286 69.07 177.085C68.8708 177.588 68.8089 177.585 68.778 177.073C68.7201 176.118 70.2636 175.682 70.7783 176.507C71.5216 177.7 71.2955 178.499 69.7754 180.043C68.5878 181.249 67.8909 181.525 66.0313 181.525C63.2662 181.525 61.7496 180.25 61.7496 177.927C61.7496 174.544 63.9526 172.652 70.7858 170.165C73.2948 169.252 74.2348 167.88 74.2223 165.149C74.2134 163.241 73.8689 162.616 72.3908 161.826C70.2876 160.701 68.0891 161.155 64.2227 163.509C59.7198 166.251 58.3295 166.609 55.4027 165.776C52.7139 165.011 51.2707 163.001 51.2682 160.017C51.2662 157.899 53.6579 152.92 56.3162 149.508C57.1079 148.492 57.7559 147.49 57.7559 147.282C57.7559 147.074 59.0304 144.939 60.5879 142.538C65.4657 135.017 69.9501 123.838 71.1872 116.115C71.8182 112.175 73.2554 97.2092 73.0247 96.9754C72.9359 96.8852 72.4636 98.9296 71.9749 101.519C70.4353 109.684 66.9364 121.673 63.8238 129.449C58.5671 142.58 53.1842 150.598 41.9175 162.075C38.0112 166.054 34.9785 169.408 35.1782 169.529C36.4147 170.272 40.8332 170.325 43.4281 169.627C47.0035 168.666 51.7649 168.623 53.911 169.534C54.7986 169.91 56.2518 171.059 57.1399 172.087C58.4992 173.659 58.7543 174.355 58.7543 176.488C58.7543 181.438 56.1869 184.561 52.1149 184.565C49.8779 184.568 47.9165 183.625 44.5873 180.949C40.2097 177.43 36.7372 177.136 34.8517 180.127C33.7125 181.935 33.5223 181.81 34.2901 179.759C34.5846 178.971 35.5032 178.129 36.5545 177.683C38.8673 176.701 40.8602 177.259 45.7519 180.258C49.7511 182.709 51.0056 182.964 53.2576 181.782C58.8737 178.832 55.9138 170.37 49.2659 170.37C48.3863 170.37 46.3405 170.719 44.7201 171.145C41.4193 172.014 35.2451 172.344 33.1983 171.762C32.0426 171.433 31.4246 171.753 28.7848 174.043C21.9361 179.987 15.3651 184.041 10.4843 185.332C7.3782 186.154 6.44418 186.19 3.94563 185.59ZM37.5379 163.846C42.9184 158.842 49.5 151.338 52.7958 146.451C56.1779 141.435 62.2753 129.108 65.293 121.186C67.6233 115.068 69.6935 107.242 71.1906 98.8931C72.8201 89.8062 72.3623 90.1971 70.024 99.8895C67.0487 112.221 64.4398 118.833 59.1307 127.497C52.5701 138.203 46.4094 145.33 38.4195 151.456C31.9513 156.415 29.8002 159.144 29.8002 162.39C29.8002 164.408 30.3578 165.904 31.6872 167.452C32.5808 168.493 32.4635 168.566 37.5379 163.846ZM74.4625 43.4798C73.9967 37.6609 73.3467 34.9233 72.1162 33.5923C70.8612 32.2359 69.8922 32.1512 68.6532 33.2906C66.9718 34.8361 67.474 36.3729 71.7553 42.7816C73.1161 44.8189 74.2298 46.7508 74.2298 47.0743C74.2298 47.3983 74.3576 47.663 74.5139 47.663C74.6701 47.663 74.6467 45.7808 74.4625 43.4798Z" fill="#DD4B4B"/>
</svg>
