<svg width="77" height="186" viewBox="0 0 77 186" fill="none" xmlns="http://www.w3.org/2000/svg">
<path fill-rule="evenodd" clip-rule="evenodd" d="M3.94563 0.410475C0.813592 1.16446 -0.748437 3.81686 0.350823 6.51336C1.501 9.33359 4.06844 9.77676 9.09049 8.02185C12.584 6.80086 14.3771 6.74965 16.4004 7.81243C17.7453 8.51876 17.8925 8.80626 17.6325 10.2209C17.3933 11.52 17.4398 11.6503 17.8726 10.9034C19.9553 7.31096 13.0562 4.06836 7.84047 6.18834C5.02492 7.33276 3.91768 7.22882 3.25822 5.75786C2.53337 4.14188 3.29765 3.14146 5.77523 2.46404C10.1907 1.25624 18.3957 5.39988 28.5577 13.9696L30.4966 15.6048L29.4582 16.7584C26.4575 20.0902 26.0122 24.1147 28.1783 28.3258C29.5326 30.9584 30.4262 31.7372 36.4512 35.5315C42.4507 39.3101 50.2154 47.4944 56.0486 56.1883C58.9041 60.4435 64.043 70.7752 65.257 74.7019C65.602 75.8174 66.2759 77.7569 66.7542 79.0118C67.5135 81.0055 68.5583 85.6309 71.5071 100.055C72.5061 104.941 73.2369 111.023 73.2025 114.162L73.174 116.787L72.0268 114.227C70.0125 109.73 66.4372 106.393 63.6326 106.393C60.1017 106.393 58.9216 110.743 61.788 113.193C62.6327 113.915 63.6481 114.506 64.0445 114.506C65.4343 114.506 68.8184 117.116 69.5043 118.719C70.1173 120.151 70.1992 120.2 70.2167 119.147C70.2466 117.325 68.4115 115.118 65.7083 113.727C62.762 112.211 61.3218 110.316 62.2508 109.179C63.1189 108.117 65.0808 108.236 67.0467 109.47C69.1708 110.803 71.9734 116.436 72.9578 121.351C73.3492 123.303 73.8105 127.367 73.9832 130.383C74.2698 135.385 74.2019 136.053 73.2089 137.989C72.6104 139.156 71.3858 140.939 70.4873 141.95C66.0348 146.96 64.8432 152.173 67.5269 154.899C68.5693 155.958 69.1344 156.151 70.5187 155.923L72.2255 155.642L71.4807 157.105C70.3964 159.235 70.5492 160.447 72.2919 163.541C74.0511 166.664 74.0466 168.815 72.2764 171.101C71.1183 172.597 70.4913 175.308 70.9106 177.007C71.0678 177.642 71.917 179.267 72.7981 180.618C74.2293 182.813 74.3112 183.124 73.5659 183.548C72.7282 184.025 72.3813 186 73.1361 186C73.8714 186 75.1229 184.748 75.4234 183.712C75.6017 183.098 75.1234 181.411 74.2258 179.483C72.4142 175.592 72.3818 174.452 73.9707 170.535C75.5288 166.693 75.5318 165.337 73.9862 162.385C72.5555 159.651 72.6793 158.36 74.6617 155.362C75.8617 153.548 75.991 152.86 76.1378 147.503C76.4863 134.804 76.5237 77.8892 76.1877 71.9131C75.6261 61.9201 73.7606 55.8547 66.8885 41.6724C64.6021 36.9548 64.4134 35.3307 66.0753 34.6827C67.5759 34.0981 68.2393 35.3692 68.2393 38.8299C68.2393 41.2779 68.5049 42.5674 69.2682 43.8213C71.1572 46.926 75.5003 46.5391 76.7678 43.153C77.3913 41.4873 76.7668 39.5398 74.7999 37.0167C73.187 34.9474 72.2026 31.9847 72.5415 30.2201C72.7048 29.3698 72.5425 29.492 71.922 30.6856C71.0878 32.2909 71.0983 32.3391 73.1545 36.5167C75.2303 40.7334 75.4918 41.7236 74.9252 43.223C74.422 44.5545 71.9749 44.2209 70.985 42.686C70.2776 41.5903 70.1822 40.7141 70.4593 37.8614C70.7883 34.4682 70.7578 34.3359 69.3071 32.8624C68.4101 31.9512 67.2953 31.3488 66.5066 31.3488C64.7628 31.3488 62.748 33.592 62.748 35.533C62.748 36.4082 64.5122 40.5853 66.9793 45.5514C73.6243 58.9274 75.3895 66.6133 75.1294 81.04L74.9787 89.4064L73.834 80.2242C71.5406 61.8308 67.2104 49.3933 58.5517 36.3316C54.4177 30.0959 53.7622 28.736 53.7622 26.3919C53.7622 24.9463 54.0952 24.1091 55.0228 23.2243C56.8144 21.5145 58.8477 21.7528 63.2472 24.1902C68.7246 27.2239 72.2729 27.0267 74.6132 23.5569C77.0124 20.001 75.0845 14.9578 70.7868 13.5487C65.0858 11.6792 63.8488 11.0206 63.2417 9.53287C62.7276 8.27183 62.761 7.82612 63.4489 6.75979C64.968 4.40504 70.2362 5.56011 70.2362 8.24799C70.2362 9.22813 69.3875 9.71388 69.07 8.91477C68.8708 8.41228 68.8089 8.41481 68.778 8.92744C68.7201 9.88172 70.2636 10.3178 70.7783 9.49281C71.5216 8.29971 71.2955 7.5011 69.7754 5.95713C68.5878 4.75085 67.8909 4.47501 66.0313 4.47501C63.2662 4.47501 61.7496 5.74974 61.7496 8.07306C61.7496 11.4556 63.9526 13.3479 70.7858 15.8345C73.2948 16.7477 74.2348 18.1203 74.2223 20.8513C74.2134 22.7593 73.8689 23.384 72.3908 24.174C70.2876 25.2987 68.0891 24.8454 64.2227 22.4911C59.7198 19.749 58.3295 19.3915 55.4027 20.2241C52.7139 20.9887 51.2707 22.9987 51.2682 25.9827C51.2662 28.1006 53.6579 33.0799 56.3162 36.4924C57.1079 37.5085 57.7559 38.5099 57.7559 38.7178C57.7559 38.9262 59.0304 41.0609 60.5879 43.4623C65.4657 50.9829 69.9501 62.1619 71.1872 69.8848C71.8182 73.8252 73.2554 88.7908 73.0247 89.0246C72.9359 89.1148 72.4636 87.0704 71.9749 84.4809C70.4353 76.3158 66.9364 64.3265 63.8238 56.5514C58.5671 43.4197 53.1842 35.4022 41.9175 23.9251C38.0112 19.9457 34.9785 16.5916 35.1782 16.4714C36.4147 15.7275 40.8332 15.6748 43.4281 16.373C47.0035 17.3344 51.7649 17.377 53.911 16.4663C54.7986 16.0896 56.2518 14.9406 57.1399 13.9133C58.4992 12.3409 58.7543 11.6447 58.7543 9.51157C58.7543 4.56223 56.1869 1.43878 52.1149 1.43472C49.8779 1.43219 47.9165 2.3748 44.5873 5.05052C40.2097 8.57048 36.7372 8.86355 34.8517 5.87296C33.7125 4.06531 33.5223 4.19005 34.2901 6.24108C34.5846 7.02904 35.5032 7.87075 36.5545 8.31695C38.8673 9.29861 40.8602 8.74085 45.7519 5.74214C49.7511 3.29054 51.0056 3.036 53.2576 4.21844C58.8737 7.16848 55.9138 15.6302 49.2659 15.6302C48.3863 15.6302 46.3405 15.2813 44.7201 14.8549C41.4193 13.9858 35.2451 13.6557 33.1983 14.2383C32.0426 14.5674 31.4246 14.2474 28.7848 11.9566C21.9361 6.0129 15.3651 1.95901 10.4843 0.668058C7.3782 -0.153875 6.44418 -0.190383 3.94563 0.410475ZM37.5379 22.1539C42.9184 27.158 49.5 34.6619 52.7958 39.5494C56.1779 44.5652 62.2753 56.8916 65.293 64.8143C67.6233 70.9319 69.6935 78.7578 71.1906 87.1069C72.8201 96.1938 72.3623 95.8029 70.024 86.1105C67.0487 73.779 64.4398 67.1665 59.1307 58.5025C52.5701 47.7971 46.4094 40.67 38.4195 34.5443C31.9513 29.5848 29.8002 26.8563 29.8002 23.6102C29.8002 21.5921 30.3578 20.0958 31.6872 18.5478C32.5808 17.5068 32.4635 17.4343 37.5379 22.1539ZM74.4625 142.52C73.9967 148.339 73.3467 151.077 72.1162 152.408C70.8612 153.764 69.8922 153.849 68.6532 152.709C66.9718 151.164 67.474 149.627 71.7553 143.218C73.1161 141.181 74.2298 139.249 74.2298 138.926C74.2298 138.602 74.3576 138.337 74.5139 138.337C74.6701 138.337 74.6467 140.219 74.4625 142.52Z" fill="#DD4B4B"/>
</svg>
