<svg width="77" height="186" viewBox="0 0 77 186" fill="none" xmlns="http://www.w3.org/2000/svg">
<path fill-rule="evenodd" clip-rule="evenodd" d="M73.0544 185.59C76.1864 184.836 77.7484 182.183 76.6492 179.487C75.499 176.666 72.9316 176.223 67.9095 177.978C64.416 179.199 62.6229 179.25 60.5996 178.188C59.2547 177.481 59.1075 177.194 59.3675 175.779C59.6067 174.48 59.5602 174.35 59.1274 175.097C57.0447 178.689 63.9438 181.932 69.1595 179.812C71.9751 178.667 73.0823 178.771 73.7418 180.242C74.4666 181.858 73.7023 182.859 71.2248 183.536C66.8093 184.744 58.6043 180.6 48.4423 172.03L46.5034 170.395L47.5418 169.242C50.5425 165.91 50.9878 161.885 48.8217 157.674C47.4674 155.042 46.5738 154.263 40.5488 150.468C34.5493 146.69 26.7846 138.506 20.9514 129.812C18.0959 125.556 12.957 115.225 11.743 111.298C11.398 110.183 10.7241 108.243 10.2458 106.988C9.48653 104.994 8.44169 100.369 5.49286 85.9455C4.49393 81.0585 3.7631 74.9774 3.79755 71.8383L3.82599 69.2127L4.97318 71.7734C6.98748 76.2704 10.5628 79.6073 13.3674 79.6073C16.8983 79.6073 18.0784 75.2568 15.212 72.8072C14.3673 72.0852 13.3519 71.4945 12.9555 71.4945C11.5657 71.4945 8.18159 68.8837 7.49568 67.2814C6.88265 65.8495 6.80078 65.8003 6.78331 66.8529C6.75336 68.6753 8.58846 70.882 11.2917 72.2728C14.238 73.7894 15.6782 75.6838 14.7492 76.8211C13.8811 77.8834 11.9192 77.7642 9.95329 76.53C7.82915 75.197 5.02659 69.5641 4.04215 64.6493C3.65077 62.6971 3.18949 58.6326 3.01677 55.6166C2.73022 50.6145 2.79813 49.9473 3.79105 48.0108C4.3896 46.8436 5.61417 45.0613 6.51274 44.0502C10.9652 39.0401 12.1568 33.8265 9.47305 31.1006C8.4307 30.0419 7.86559 29.8487 6.48128 30.0769L4.7745 30.3583L5.5193 28.8949C6.60358 26.7653 6.45083 25.5529 4.70809 22.4589C2.94888 19.336 2.95337 17.185 4.72356 14.8987C5.88173 13.4029 6.50874 10.6917 6.0894 8.9931C5.93215 8.35826 5.08301 6.73315 4.2019 5.38237C2.77067 3.18733 2.68878 2.8755 3.4341 2.4516C4.27177 1.97548 4.61874 0 3.86394 0C3.1286 0 1.87708 1.25192 1.57655 2.28835C1.39834 2.90187 1.87657 4.58884 2.77415 6.51715C4.58578 10.4078 4.61824 11.5476 3.02926 15.4651C1.47122 19.3071 1.46823 20.6634 3.01378 23.615C4.44451 26.3485 4.32071 27.64 2.33835 30.6377C1.13825 32.4524 1.00896 33.14 0.86219 38.497C0.513741 51.1961 0.476295 108.111 0.812263 114.087C1.37388 124.08 3.23942 130.145 10.1115 144.328C12.3979 149.045 12.5866 150.669 10.9247 151.317C9.42412 151.902 8.76067 150.631 8.76067 147.17C8.76067 144.722 8.49509 143.433 7.7318 142.179C5.8428 139.074 1.49966 139.461 0.232178 142.847C-0.391342 144.513 0.233177 146.46 2.20007 148.983C3.81301 151.053 4.79745 154.015 4.45848 155.78C4.29524 156.63 4.45748 156.508 5.078 155.314C5.91218 153.709 5.9017 153.661 3.84546 149.483C1.76974 145.267 1.50816 144.276 2.07476 142.777C2.57796 141.445 5.02509 141.779 6.01502 143.314C6.7224 144.41 6.81776 145.286 6.5407 148.139C6.21172 151.532 6.24216 151.664 7.69286 153.138C8.58994 154.049 9.70469 154.651 10.4934 154.651C12.2372 154.651 14.252 152.408 14.252 150.467C14.252 149.592 12.4878 145.415 10.0207 140.449C3.37569 127.073 1.6105 119.387 1.87058 104.96L2.02135 96.5936L3.16604 105.776C5.4594 124.169 9.78955 136.607 18.4483 149.668C22.5823 155.904 23.2378 157.264 23.2378 159.608C23.2378 161.054 22.9048 161.891 21.9772 162.776C20.1856 164.485 18.1523 164.247 13.7528 161.81C8.27544 158.776 4.72706 158.973 2.38676 162.443C-0.0124359 165.999 1.91552 171.042 6.21321 172.451C11.9142 174.321 13.1512 174.979 13.7583 176.467C14.2724 177.728 14.239 178.174 13.5511 179.24C12.032 181.595 6.76384 180.44 6.76384 177.752C6.76384 176.772 7.6125 176.286 7.92999 177.085C8.12917 177.588 8.19107 177.585 8.22202 177.073C8.27993 176.118 6.73638 175.682 6.22169 176.507C5.47838 177.7 5.70452 178.499 7.22461 180.043C8.41223 181.249 9.10912 181.525 10.9687 181.525C13.7338 181.525 15.2504 180.25 15.2504 177.927C15.2504 174.544 13.0474 172.652 6.2142 170.165C3.70518 169.252 2.76517 167.88 2.77766 165.149C2.78664 163.241 3.13109 162.616 4.60925 161.826C6.71242 160.701 8.91093 161.155 12.7773 163.509C17.2802 166.251 18.6705 166.609 21.5973 165.776C24.2861 165.011 25.7293 163.001 25.7318 160.017C25.7338 157.899 23.3421 152.92 20.6838 149.508C19.8921 148.492 19.2441 147.49 19.2441 147.282C19.2441 147.074 17.9696 144.939 16.4121 142.538C11.5343 135.017 7.04989 123.838 5.81284 116.115C5.18185 112.175 3.74462 97.2092 3.97526 96.9754C4.06412 96.8852 4.53636 98.9296 5.02509 101.519C6.56465 109.684 10.0636 121.673 13.1762 129.449C18.4329 142.58 23.8158 150.598 35.0825 162.075C38.9888 166.054 42.0215 169.408 41.8218 169.529C40.5853 170.272 36.1668 170.325 33.5719 169.627C29.9965 168.666 25.2351 168.623 23.089 169.534C22.2014 169.91 20.7482 171.059 19.8601 172.087C18.5008 173.659 18.2457 174.355 18.2457 176.488C18.2457 181.438 20.8131 184.561 24.8851 184.565C27.1221 184.568 29.0835 183.625 32.4127 180.949C36.7903 177.43 40.2628 177.136 42.1483 180.127C43.2875 181.935 43.4777 181.81 42.7099 179.759C42.4154 178.971 41.4968 178.129 40.4455 177.683C38.1327 176.701 36.1398 177.259 31.2481 180.258C27.2489 182.709 25.9944 182.964 23.7424 181.782C18.1263 178.832 21.0862 170.37 27.7341 170.37C28.6137 170.37 30.6595 170.719 32.2799 171.145C35.5807 172.014 41.7549 172.344 43.8017 171.762C44.9574 171.433 45.5754 171.753 48.2152 174.043C55.0639 179.987 61.6349 184.041 66.5157 185.332C69.6218 186.154 70.5558 186.19 73.0544 185.59ZM39.4621 163.846C34.0816 158.842 27.5 151.338 24.2042 146.451C20.8221 141.435 14.7247 129.108 11.707 121.186C9.3767 115.068 7.30649 107.242 5.80936 98.8931C4.17994 89.8062 4.6377 90.1971 6.976 99.8895C9.95129 112.221 12.5602 118.833 17.8693 127.497C24.4299 138.203 30.5906 145.33 38.5805 151.456C45.0487 156.415 47.1998 159.144 47.1998 162.39C47.1998 164.408 46.6422 165.904 45.3128 167.452C44.4192 168.493 44.5365 168.566 39.4621 163.846ZM2.53753 43.4798C3.00329 37.6609 3.65327 34.9233 4.88382 33.5923C6.13883 32.2359 7.10779 32.1512 8.34682 33.2906C10.0282 34.8361 9.52596 36.3729 5.24474 42.7816C3.8839 44.8189 2.77016 46.7508 2.77016 47.0743C2.77016 47.3983 2.64236 47.663 2.48611 47.663C2.32986 47.663 2.35332 45.7808 2.53753 43.4798Z" fill="#DD4B4B"/>
</svg>
