<svg width="414" height="439" viewBox="0 0 414 439" fill="none" xmlns="http://www.w3.org/2000/svg">
<path d="M62.6443 275.692C74.316 273.033 78.6005 269.487 80.2257 258.406C81.1121 252.497 89.238 155.134 89.238 135.928V77.5691C89.238 58.2148 89.3857 47.4296 105.785 44.9179V43.145C105.342 43.145 89.238 45.8044 83.7715 45.8044C77.5663 45.8044 74.316 45.8044 62.6443 43.145V44.9179C79.0437 47.4296 79.1915 57.9193 79.1915 77.2736V241.564C79.1915 260.918 79.0437 271.408 62.6443 273.919V275.692Z" fill="#F3460F"/>
<path d="M145.331 75.2052C149.467 75.2052 152.866 71.9549 152.866 67.8181C152.866 63.6813 149.467 60.2832 145.331 60.2832C141.194 60.2832 137.943 63.6813 137.943 67.8181C137.943 71.9549 141.194 75.2052 145.331 75.2052ZM123.908 155.282C135.58 152.622 138.83 152.622 145.035 152.622C150.502 152.622 166.606 155.282 167.049 155.282V153.509C151.093 151.145 150.502 140.803 150.502 122.483L150.354 90.4227H147.547C140.898 95.446 133.807 98.4008 123.908 98.4008V100.174C140.012 102.685 140.455 102.538 140.455 121.153C140.455 140.508 140.307 150.997 123.908 153.509V155.282Z" fill="#F3460F"/>
<path d="M209.12 161.635L227.144 124.108L247.533 161.635L281.809 90.5705H170.559L209.12 161.635ZM213.404 147.008L184.003 92.4911L210.006 92.6389L225.667 121.301L213.404 147.008ZM231.429 109.186L222.417 92.6389H239.259L231.429 109.186ZM251.817 147.008L233.054 112.141L242.362 92.6389H277.672L251.817 147.008Z" fill="#F3460F"/>
<path d="M312.877 156.759C321.594 156.759 336.959 145.826 337.698 143.758C337.698 147.008 337.698 156.759 346.119 156.759C356.904 156.759 366.36 146.122 366.803 146.122L364.439 143.462C363.257 144.792 355.87 148.486 353.211 148.486C349.665 148.486 347.301 145.088 347.301 129.87V107.709C347.301 92.3434 337.107 87.7634 325.435 87.7634C309.626 87.7634 297.068 95.1505 297.068 103.867L307.115 110.516C307.115 97.8099 314.206 90.5705 320.855 90.5705C329.572 90.5705 337.698 98.1054 337.698 111.698L324.696 115.391C302.978 121.596 296.625 128.688 296.625 140.36C296.625 152.179 304.012 156.759 312.877 156.759ZM321.298 148.486C312.286 148.781 305.342 145.383 305.342 134.007C305.342 125.142 313.615 121.301 322.776 118.789L337.698 114.653C337.698 114.653 337.698 117.312 337.698 120.858V138.735C337.698 141.394 326.617 148.338 321.298 148.486Z" fill="#F3460F"/>
<path d="M0.296875 438.061C11.9686 435.402 15.2189 435.402 21.4241 435.402C26.8906 435.402 42.9946 438.061 43.4378 438.061V436.289C27.0383 433.777 26.8906 422.992 26.8906 403.637V238.904C26.8906 225.755 26.8906 216.595 32.2093 211.276C38.8578 206.844 46.8359 204.923 55.1095 204.923C74.4638 204.923 95.4433 215.265 105.194 228.858C112.138 238.609 115.684 251.167 115.684 263.577C115.684 279.238 109.922 294.455 97.5117 303.32C91.011 308.048 81.9987 311.003 72.3954 312.332L132.083 407.183C138.436 417.821 144.642 426.833 144.642 431.856C144.642 434.072 143.312 435.55 140.209 435.993V437.766C151.881 435.107 153.654 435.107 159.859 435.107C165.326 435.107 182.907 437.766 183.35 437.766V435.993C166.951 433.481 153.358 420.332 143.755 406.297L85.249 312.923C90.2723 311.003 95 308.639 99.1368 305.684C114.945 294.455 123.958 275.988 123.958 257.076C123.958 245.405 120.56 233.585 113.172 223.243C102.239 207.878 84.3625 198.57 65.8947 198.57C43.4378 198.57 36.1984 207.139 21.4241 207.139C15.2189 207.139 11.9686 207.139 0.296875 204.48V206.253C16.6963 208.765 16.8441 219.254 16.8441 238.609V403.933C16.8441 423.287 16.6963 433.777 0.296875 436.289V438.061Z" fill="#F3460F"/>
<path d="M164.536 236.983C168.673 236.983 172.071 233.733 172.071 229.596C172.071 225.46 168.673 222.061 164.536 222.061C160.399 222.061 157.149 225.46 157.149 229.596C157.149 233.733 160.399 236.983 164.536 236.983ZM143.113 317.06C154.785 314.401 158.035 314.401 164.241 314.401C169.707 314.401 185.811 317.06 186.254 317.06V315.287C170.298 312.923 169.707 302.581 169.707 284.261L169.559 252.201H166.752C160.104 257.224 153.012 260.179 143.113 260.179V261.952C159.217 264.464 159.661 264.316 159.661 282.931C159.661 302.286 159.513 312.776 143.113 315.287V317.06Z" fill="#F3460F"/>
<path d="M202.777 317.503H261.431C261.431 311.15 271.478 297.558 272.955 287.955H269.853C269.853 306.275 250.646 315.435 239.417 315.435L214.153 315.583L265.568 252.349H209.13C209.13 253.826 209.278 255.451 209.278 257.667C209.278 263.134 208.391 270.964 202.482 282.045H204.255C211.642 264.611 219.029 254.417 230.257 254.417L252.123 254.269L202.777 315.287V317.503Z" fill="#F3460F"/>
<path d="M301.928 318.537C310.645 318.537 326.01 307.605 326.749 305.536C326.749 308.786 326.748 318.537 335.17 318.537C345.955 318.537 355.411 307.9 355.854 307.9L353.49 305.241C352.308 306.57 344.921 310.264 342.262 310.264C338.716 310.264 336.352 306.866 336.352 291.648V269.487C336.352 254.122 326.158 249.542 314.486 249.542C298.677 249.542 286.119 256.929 286.119 265.646L296.166 272.294C296.166 259.588 303.257 252.349 309.906 252.349C318.623 252.349 326.749 259.884 326.749 273.476L313.747 277.17C292.029 283.375 285.676 290.466 285.676 302.138C285.676 313.957 293.063 318.537 301.928 318.537ZM310.349 310.264C301.337 310.559 294.393 307.161 294.393 295.785C294.393 286.921 302.666 283.079 311.826 280.568L326.749 276.431C326.749 276.431 326.749 279.09 326.749 282.636V300.513C326.749 303.172 315.668 310.116 310.349 310.264Z" fill="#F3460F"/>
<path d="M361.265 317.06C369.686 314.992 376.187 314.253 381.506 314.253C390.075 314.253 396.28 316.026 404.406 317.06V315.287C388.45 312.923 387.711 303.911 387.711 283.227V226.937C387.711 224.425 387.711 212.31 389.188 206.696H384.904C378.255 211.719 371.164 214.379 361.265 214.379V216.152C377.369 218.663 377.664 220.732 377.664 239.347V283.67C377.664 303.024 377.664 312.776 361.265 315.287V317.06Z" fill="#F3460F"/>
<path d="M242.569 265.055C255.629 265.055 268.855 261.217 280.262 253.042H280.427C280.427 252.542 278.443 250.373 278.443 250.373C270.508 256.046 260.919 258.548 251.166 258.548C218.267 258.548 189.502 233.856 185.534 198.988H220.416C229.343 198.988 229.343 204.493 229.343 211.667V232.021C229.343 241.03 236.122 247.704 245.379 247.704C261.911 247.704 267.532 239.529 267.532 238.528L266.54 237.527C264.556 239.529 260.589 242.865 251.827 242.865C240.42 242.865 240.585 232.855 240.585 230.353V199.154H316.467V196.652H240.585V150.605H237.444C237.444 197.152 236.948 196.652 210.993 196.652H185.369C185.203 194.817 185.203 192.981 185.203 190.979C185.203 163.785 201.901 137.925 232.815 137.925C259.927 137.925 289.024 158.113 297.124 184.973H299.108C299.108 184.473 296.132 166.288 296.132 160.115C296.132 153.108 296.132 149.437 299.108 136.257H297.124C295.967 143.431 293.653 148.77 289.685 152.44C277.121 139.26 259.597 132.086 241.577 132.086C204.711 132.086 176.111 163.451 176.111 198.988C176.111 236.192 207.191 265.055 242.569 265.055Z" fill="#F3460F"/>
<path d="M30.5842 102.242C30.5842 102.242 31.4941 117.875 35.1495 124.391C38.8049 130.907 47.5746 132.529 47.5746 132.529C47.5746 132.529 38.8049 134.152 35.1495 140.668C31.4941 147.184 30.5842 162.817 30.5842 162.817C30.5842 162.817 29.6742 147.184 26.0188 140.668C22.3635 134.152 13.5938 132.529 13.5938 132.529C13.5938 132.529 22.3635 130.907 26.0188 124.391C29.6742 117.875 30.5842 102.242 30.5842 102.242Z" fill="#F3460F"/>
<path d="M197.533 343.063C197.533 343.063 198.443 358.696 202.099 365.212C205.754 371.728 214.524 373.35 214.524 373.35C214.524 373.35 205.754 374.972 202.099 381.488C198.443 388.005 197.533 403.638 197.533 403.638C197.533 403.638 196.623 388.005 192.968 381.488C189.313 374.972 180.543 373.35 180.543 373.35C180.543 373.35 189.313 371.728 192.968 365.212C196.623 358.696 197.533 343.063 197.533 343.063Z" fill="#F3460F"/>
<path d="M281.747 0.299561C281.747 0.299561 282.657 15.9325 286.312 22.4486C289.968 28.9647 298.737 30.5868 298.737 30.5868C298.737 30.5868 289.968 32.209 286.312 38.725C282.657 45.2411 281.747 60.8741 281.747 60.8741C281.747 60.8741 280.837 45.2411 277.182 38.725C273.526 32.209 264.757 30.5868 264.757 30.5868C264.757 30.5868 273.526 28.9647 277.182 22.4486C280.837 15.9325 281.747 0.299561 281.747 0.299561Z" fill="#F3460F"/>
<path d="M396.986 99.2874C396.986 99.2874 397.896 114.92 401.552 121.436C405.207 127.953 413.977 129.575 413.977 129.575C413.977 129.575 405.207 131.197 401.552 137.713C397.896 144.229 396.986 159.862 396.986 159.862C396.986 159.862 396.076 144.229 392.421 137.713C388.766 131.197 379.996 129.575 379.996 129.575C379.996 129.575 388.766 127.953 392.421 121.436C396.076 114.92 396.986 99.2874 396.986 99.2874Z" fill="#F3460F"/>
</svg>
